# xmcd CD database file
#
# Track frame offsets:
#	150
#	17323
#	39312
#	59458
#	82310
#	110831
#	137093
#	164838
#	185209
#	204656
#	220693
#	234723
#	256744
#	272578
#	296371
#
# Disc length: 4606 seconds
#
# Revision: 0
# Processed by: cddbd v1.5.2PL0 Copyright (c) Steve Scherf et al.
# Submitted via: CDex 1.51
#
DISCID=e311fc0f
DTITLE=John Lewis - Improvised Meditations and Excursions
DYEAR=1959
DGENRE=Jazz
TTITLE0=Now's the time
TTITLE1=Smoke gets in your eyes
TTITLE2=Delaunay's dilemma
TTITLE3=Love me
TTITLE4=Yesterdays
TTITLE5=How long has this been going on
TTITLE6=September song
TTITLE7=Little girl blue
TTITLE8=D&E
TTITLE9=I can't get started
TTITLE10=Skylark
TTITLE11=I should care
TTITLE12=I remember Clifford
TTITLE13=Harlequin
TTITLE14=Two lyric pieces
EXTD=YEAR: 1959
EXTT0=
EXTT1=
EXTT2=
EXTT3=
EXTT4=
EXTT5=
EXTT6=
EXTT7=
EXTT8=
EXTT9=
EXTT10=
EXTT11=
EXTT12=
EXTT13=
EXTT14=
PLAYORDER=
